<?xml version="1.0" standalone="no"?>
<!DOCTYPE svg PUBLIC "-//W3C//DTD SVG 20010904//EN"
 "http://www.w3.org/TR/2001/REC-SVG-20010904/DTD/svg10.dtd">
<svg version="1.0" xmlns="http://www.w3.org/2000/svg"
 width="222.000000pt" height="178.000000pt" viewBox="0 0 222.000000 178.000000"
 preserveAspectRatio="xMidYMid meet">

<g transform="translate(0.000000,178.000000) scale(0.100000,-0.100000)"
fill="#0b36a8" stroke="none">
<path d="M1212 1748 c-5 -7 -26 -69 -45 -138 -19 -69 -94 -330 -167 -580 -267
-920 -264 -910 -249 -925 18 -18 232 -80 251 -73 8 4 40 96 82 239 37 129 110
383 162 564 111 384 234 805 239 821 7 23 -16 36 -130 69 -135 40 -129 39
-143 23z"/>
<path d="M290 1151 c-140 -132 -256 -246 -258 -254 -2 -8 109 -120 253 -256
191 -180 262 -241 278 -239 11 2 58 45 105 96 76 85 82 95 70 112 -7 11 -78
77 -158 146 -80 70 -146 130 -148 134 -2 5 67 70 152 145 113 99 156 143 156
158 -1 25 -159 197 -181 197 -8 0 -129 -108 -269 -239z"/>
<path d="M1566 1300 c-47 -49 -86 -98 -86 -108 0 -11 59 -70 155 -153 85 -74
155 -139 155 -145 0 -6 -64 -66 -142 -135 -171 -150 -168 -147 -168 -165 0
-22 163 -194 184 -194 11 0 49 28 85 62 91 86 336 315 394 368 32 29 47 50 45
64 -3 22 -502 496 -522 496 -7 0 -52 -40 -100 -90z"/>
</g>
</svg>
