<?xml version="1.0" standalone="no"?>
<!DOCTYPE svg PUBLIC "-//W3C//DTD SVG 20010904//EN"
 "http://www.w3.org/TR/2001/REC-SVG-20010904/DTD/svg10.dtd">
<svg version="1.0" xmlns="http://www.w3.org/2000/svg"
 width="196.000000pt" height="174.000000pt" viewBox="0 0 196.000000 174.000000"
 preserveAspectRatio="xMidYMid meet">

<g transform="translate(0.000000,174.000000) scale(0.100000,-0.100000)"
fill="#0b36a8" stroke="none">
<path d="M374 1722 c-22 -14 -354 -514 -354 -532 0 -17 856 -1087 931 -1165
24 -24 33 -28 47 -19 9 6 125 143 257 306 493 607 696 859 701 871 2 7 -26 57
-64 112 -37 55 -114 170 -171 255 -57 85 -111 161 -119 168 -12 9 -151 12
-616 12 -331 0 -606 -4 -612 -8z m266 -163 c0 -6 -37 -80 -82 -165 l-83 -154
-114 0 c-89 0 -112 3 -108 13 7 18 176 278 195 300 12 14 32 17 104 17 58 0
88 -4 88 -11z m584 -148 c47 -87 86 -161 86 -165 0 -3 -146 -6 -325 -6 -179 0
-325 2 -325 5 0 7 130 247 156 288 l24 37 149 0 149 0 86 -159z m399 -6 l107
-160 -107 -3 c-59 -1 -112 -1 -118 2 -13 5 -175 298 -175 316 0 7 30 10 93 8
l92 -3 108 -160z m-1029 -576 c59 -138 105 -253 103 -256 -3 -3 -87 105 -188
239 -100 133 -186 249 -192 256 -7 9 10 12 80 12 l90 0 107 -251z m713 234
c-4 -16 -166 -425 -271 -681 -23 -57 -45 -105 -50 -105 -6 -2 -297 709 -322
786 -5 16 15 17 321 17 307 0 327 -1 322 -17z m326 -21 c-198 -269 -359 -479
-361 -473 -1 4 46 121 104 259 l107 252 89 0 90 0 -29 -38z"/>
</g>
</svg>
