<?xml version="1.0" standalone="no"?>
<!DOCTYPE svg PUBLIC "-//W3C//DTD SVG 20010904//EN"
 "http://www.w3.org/TR/2001/REC-SVG-20010904/DTD/svg10.dtd">
<svg version="1.0" xmlns="http://www.w3.org/2000/svg"
 width="214.000000pt" height="171.000000pt" viewBox="0 0 214.000000 171.000000"
 preserveAspectRatio="xMidYMid meet">

<g transform="translate(0.000000,171.000000) scale(0.100000,-0.100000)"
fill="#0b36a8" stroke="none">
<path d="M119 1700 c-43 -12 -74 -38 -97 -79 -22 -39 -22 -41 -22 -612 0 -552
1 -574 20 -614 13 -27 34 -49 61 -65 41 -23 44 -23 433 -25 215 -1 410 -3 434
-4 l42 -1 0 -55 0 -55 -290 0 -290 0 -30 -27 c-40 -37 -48 -86 -21 -131 l21
-32 716 2 717 3 19 37 c17 32 18 43 8 72 -23 72 -18 71 -346 74 l-294 3 0 54
0 55 73 2 c39 1 227 3 417 3 344 0 345 0 383 23 71 45 67 0 67 678 l0 612 -25
30 c-13 16 -37 34 -52 40 -33 12 -1902 24 -1944 12z m1824 -560 c3 -193 3
-411 0 -485 l-6 -135 -863 0 -864 0 0 485 0 485 863 0 864 0 6 -350z"/>
</g>
</svg>
